<?xml version="1.0" encoding="UTF-8" standalone="no"?>
<!DOCTYPE svg PUBLIC "-//W3C//DTD SVG 1.1//EN"
 "http://www.w3.org/Graphics/SVG/1.1/DTD/svg11.dtd">
<!-- Generated by graphviz version 14.1.3 (20260303.0454)
 -->
<!-- Title: unknown Pages: 1 -->
<svg width="194pt" height="260pt"
 viewBox="0.00 0.00 194.00 260.00" xmlns="http://www.w3.org/2000/svg" xmlns:xlink="http://www.w3.org/1999/xlink">
<g id="graph0" class="graph" transform="scale(1 1) rotate(0) translate(4 256)">
<title>unknown</title>
<polygon fill="white" stroke="none" points="-4,4 -4,-256 189.9,-256 189.9,4 -4,4"/>
<!-- asia -->
<g id="node1" class="node">
<title>asia</title>
<ellipse fill="none" stroke="black" cx="27" cy="-234" rx="27" ry="18"/>
<text xml:space="preserve" text-anchor="middle" x="27" y="-228.95" font-family="Times New Roman,serif" font-size="14.00">asia</text>
</g>
<!-- tub -->
<g id="node2" class="node">
<title>tub</title>
<ellipse fill="none" stroke="black" cx="27" cy="-162" rx="27" ry="18"/>
<text xml:space="preserve" text-anchor="middle" x="27" y="-156.95" font-family="Times New Roman,serif" font-size="14.00">tub</text>
</g>
<!-- asia&#45;&gt;tub -->
<g id="edge1" class="edge">
<title>asia&#45;&gt;tub</title>
<path fill="none" stroke="black" d="M27,-215.7C27,-208.41 27,-199.73 27,-191.54"/>
<polygon fill="black" stroke="black" points="30.5,-191.61 27,-181.61 23.5,-191.61 30.5,-191.61"/>
</g>
<!-- either -->
<g id="node3" class="node">
<title>either</title>
<ellipse fill="none" stroke="black" cx="72" cy="-90" rx="31.9" ry="18"/>
<text xml:space="preserve" text-anchor="middle" x="72" y="-84.95" font-family="Times New Roman,serif" font-size="14.00">either</text>
</g>
<!-- tub&#45;&gt;either -->
<g id="edge2" class="edge">
<title>tub&#45;&gt;either</title>
<path fill="none" stroke="black" d="M37.21,-145.12C42.6,-136.73 49.35,-126.24 55.46,-116.73"/>
<polygon fill="black" stroke="black" points="58.23,-118.89 60.7,-108.58 52.35,-115.1 58.23,-118.89"/>
</g>
<!-- dysp -->
<g id="node4" class="node">
<title>dysp</title>
<ellipse fill="none" stroke="black" cx="150" cy="-18" rx="28.32" ry="18"/>
<text xml:space="preserve" text-anchor="middle" x="150" y="-12.95" font-family="Times New Roman,serif" font-size="14.00">dysp</text>
</g>
<!-- either&#45;&gt;dysp -->
<g id="edge3" class="edge">
<title>either&#45;&gt;dysp</title>
<path fill="none" stroke="black" d="M88.54,-74.16C99.34,-64.47 113.62,-51.65 125.69,-40.81"/>
<polygon fill="black" stroke="black" points="127.78,-43.64 132.89,-34.36 123.11,-38.43 127.78,-43.64"/>
</g>
<!-- xray -->
<g id="node5" class="node">
<title>xray</title>
<ellipse fill="none" stroke="black" cx="72" cy="-18" rx="27.3" ry="18"/>
<text xml:space="preserve" text-anchor="middle" x="72" y="-12.95" font-family="Times New Roman,serif" font-size="14.00">xray</text>
</g>
<!-- either&#45;&gt;xray -->
<g id="edge4" class="edge">
<title>either&#45;&gt;xray</title>
<path fill="none" stroke="black" d="M72,-71.7C72,-64.41 72,-55.73 72,-47.54"/>
<polygon fill="black" stroke="black" points="75.5,-47.62 72,-37.62 68.5,-47.62 75.5,-47.62"/>
</g>
<!-- smoke -->
<g id="node6" class="node">
<title>smoke</title>
<ellipse fill="none" stroke="black" cx="130" cy="-234" rx="35.49" ry="18"/>
<text xml:space="preserve" text-anchor="middle" x="130" y="-228.95" font-family="Times New Roman,serif" font-size="14.00">smoke</text>
</g>
<!-- lung -->
<g id="node7" class="node">
<title>lung</title>
<ellipse fill="none" stroke="black" cx="99" cy="-162" rx="27.3" ry="18"/>
<text xml:space="preserve" text-anchor="middle" x="99" y="-156.95" font-family="Times New Roman,serif" font-size="14.00">lung</text>
</g>
<!-- smoke&#45;&gt;lung -->
<g id="edge5" class="edge">
<title>smoke&#45;&gt;lung</title>
<path fill="none" stroke="black" d="M122.5,-216.05C119.07,-208.32 114.92,-198.96 111.08,-190.27"/>
<polygon fill="black" stroke="black" points="114.3,-188.9 107.05,-181.17 107.9,-191.73 114.3,-188.9"/>
</g>
<!-- bronc -->
<g id="node8" class="node">
<title>bronc</title>
<ellipse fill="none" stroke="black" cx="154" cy="-90" rx="31.9" ry="18"/>
<text xml:space="preserve" text-anchor="middle" x="154" y="-84.95" font-family="Times New Roman,serif" font-size="14.00">bronc</text>
</g>
<!-- smoke&#45;&gt;bronc -->
<g id="edge6" class="edge">
<title>smoke&#45;&gt;bronc</title>
<path fill="none" stroke="black" d="M132.94,-215.59C137,-191.61 144.34,-148.14 149.2,-119.42"/>
<polygon fill="black" stroke="black" points="152.64,-120.05 150.86,-109.6 145.74,-118.88 152.64,-120.05"/>
</g>
<!-- lung&#45;&gt;either -->
<g id="edge7" class="edge">
<title>lung&#45;&gt;either</title>
<path fill="none" stroke="black" d="M92.46,-144.05C89.48,-136.32 85.87,-126.96 82.52,-118.27"/>
<polygon fill="black" stroke="black" points="85.88,-117.27 79.02,-109.2 79.35,-119.79 85.88,-117.27"/>
</g>
<!-- bronc&#45;&gt;dysp -->
<g id="edge8" class="edge">
<title>bronc&#45;&gt;dysp</title>
<path fill="none" stroke="black" d="M153.01,-71.7C152.59,-64.41 152.1,-55.73 151.63,-47.54"/>
<polygon fill="black" stroke="black" points="155.13,-47.4 151.07,-37.62 148.14,-47.8 155.13,-47.4"/>
</g>
</g>
</svg>
