<?xml version="1.0" encoding="UTF-8" standalone="no"?>
<!DOCTYPE svg PUBLIC "-//W3C//DTD SVG 1.1//EN"
 "http://www.w3.org/Graphics/SVG/1.1/DTD/svg11.dtd">
<!-- Generated by graphviz version 14.1.3 (20260303.0454)
 -->
<!-- Pages: 1 -->
<svg width="386pt" height="116pt"
 viewBox="0.00 0.00 386.00 116.00" xmlns="http://www.w3.org/2000/svg" xmlns:xlink="http://www.w3.org/1999/xlink">
<g id="graph0" class="graph" transform="scale(1 1) rotate(0) translate(4 112)">
<polygon fill="white" stroke="none" points="-4,4 -4,-112 381.79,-112 381.79,4 -4,4"/>
<!-- Smoker -->
<g id="node1" class="node">
<title>Smoker</title>
<ellipse fill="none" stroke="black" cx="40.09" cy="-90" rx="40.09" ry="18"/>
<text xml:space="preserve" text-anchor="middle" x="40.09" y="-84.95" font-family="Times New Roman,serif" font-size="14.00">Smoker</text>
</g>
<!-- Cancer -->
<g id="node2" class="node">
<title>Cancer</title>
<ellipse fill="none" stroke="black" cx="146.09" cy="-18" rx="37.02" ry="18"/>
<text xml:space="preserve" text-anchor="middle" x="146.09" y="-12.95" font-family="Times New Roman,serif" font-size="14.00">Cancer</text>
</g>
<!-- Smoker&#45;&gt;Cancer -->
<g id="edge1" class="edge">
<title>Smoker&#45;&gt;Cancer</title>
<path fill="none" stroke="black" d="M62.06,-74.5C77.47,-64.32 98.28,-50.57 115.34,-39.31"/>
<polygon fill="black" stroke="black" points="117.2,-42.27 123.62,-33.84 113.34,-36.43 117.2,-42.27"/>
</g>
<!-- Dyspnoea -->
<g id="node3" class="node">
<title>Dyspnoea</title>
<ellipse fill="none" stroke="black" cx="146.09" cy="-90" rx="47.77" ry="18"/>
<text xml:space="preserve" text-anchor="middle" x="146.09" y="-84.95" font-family="Times New Roman,serif" font-size="14.00">Dyspnoea</text>
</g>
<!-- Dyspnoea&#45;&gt;Cancer -->
<g id="edge2" class="edge">
<title>Dyspnoea&#45;&gt;Cancer</title>
<path fill="none" stroke="black" d="M146.09,-71.7C146.09,-64.41 146.09,-55.73 146.09,-47.54"/>
<polygon fill="black" stroke="black" points="149.59,-47.62 146.09,-37.62 142.59,-47.62 149.59,-47.62"/>
</g>
<!-- Xray -->
<g id="node4" class="node">
<title>Xray</title>
<ellipse fill="none" stroke="black" cx="241.09" cy="-90" rx="29.34" ry="18"/>
<text xml:space="preserve" text-anchor="middle" x="241.09" y="-84.95" font-family="Times New Roman,serif" font-size="14.00">Xray</text>
</g>
<!-- Xray&#45;&gt;Cancer -->
<g id="edge3" class="edge">
<title>Xray&#45;&gt;Cancer</title>
<path fill="none" stroke="black" d="M222.77,-75.5C209.29,-65.57 190.68,-51.86 175.17,-40.43"/>
<polygon fill="black" stroke="black" points="177.34,-37.68 167.21,-34.56 173.18,-43.31 177.34,-37.68"/>
</g>
<!-- Pollution -->
<g id="node5" class="node">
<title>Pollution</title>
<ellipse fill="none" stroke="black" cx="333.09" cy="-90" rx="44.7" ry="18"/>
<text xml:space="preserve" text-anchor="middle" x="333.09" y="-84.95" font-family="Times New Roman,serif" font-size="14.00">Pollution</text>
</g>
</g>
</svg>
