<?xml version="1.0" encoding="UTF-8" standalone="no"?>
<!DOCTYPE svg PUBLIC "-//W3C//DTD SVG 1.1//EN"
 "http://www.w3.org/Graphics/SVG/1.1/DTD/svg11.dtd">
<!-- Generated by graphviz version 14.1.3 (20260303.0454)
 -->
<!-- Title: unknown Pages: 1 -->
<svg width="199pt" height="188pt"
 viewBox="0.00 0.00 199.00 188.00" xmlns="http://www.w3.org/2000/svg" xmlns:xlink="http://www.w3.org/1999/xlink">
<g id="graph0" class="graph" transform="scale(1 1) rotate(0) translate(4 184)">
<title>unknown</title>
<polygon fill="white" stroke="none" points="-4,4 -4,-184 195.47,-184 195.47,4 -4,4"/>
<!-- Pollution -->
<g id="node1" class="node">
<title>Pollution</title>
<ellipse fill="none" stroke="black" cx="44.7" cy="-162" rx="44.7" ry="18"/>
<text xml:space="preserve" text-anchor="middle" x="44.7" y="-156.95" font-family="Times New Roman,serif" font-size="14.00">Pollution</text>
</g>
<!-- Cancer -->
<g id="node2" class="node">
<title>Cancer</title>
<ellipse fill="none" stroke="black" cx="95.7" cy="-90" rx="37.02" ry="18"/>
<text xml:space="preserve" text-anchor="middle" x="95.7" y="-84.95" font-family="Times New Roman,serif" font-size="14.00">Cancer</text>
</g>
<!-- Pollution&#45;&gt;Cancer -->
<g id="edge1" class="edge">
<title>Pollution&#45;&gt;Cancer</title>
<path fill="none" stroke="black" d="M56.78,-144.41C62.82,-136.13 70.25,-125.92 77,-116.66"/>
<polygon fill="black" stroke="black" points="79.75,-118.84 82.81,-108.69 74.09,-114.71 79.75,-118.84"/>
</g>
<!-- Xray -->
<g id="node3" class="node">
<title>Xray</title>
<ellipse fill="none" stroke="black" cx="48.7" cy="-18" rx="29.34" ry="18"/>
<text xml:space="preserve" text-anchor="middle" x="48.7" y="-12.95" font-family="Times New Roman,serif" font-size="14.00">Xray</text>
</g>
<!-- Cancer&#45;&gt;Xray -->
<g id="edge2" class="edge">
<title>Cancer&#45;&gt;Xray</title>
<path fill="none" stroke="black" d="M84.56,-72.41C78.92,-64.01 71.95,-53.63 65.66,-44.26"/>
<polygon fill="black" stroke="black" points="68.76,-42.6 60.28,-36.24 62.94,-46.5 68.76,-42.6"/>
</g>
<!-- Dyspnoea -->
<g id="node4" class="node">
<title>Dyspnoea</title>
<ellipse fill="none" stroke="black" cx="143.7" cy="-18" rx="47.77" ry="18"/>
<text xml:space="preserve" text-anchor="middle" x="143.7" y="-12.95" font-family="Times New Roman,serif" font-size="14.00">Dyspnoea</text>
</g>
<!-- Cancer&#45;&gt;Dyspnoea -->
<g id="edge3" class="edge">
<title>Cancer&#45;&gt;Dyspnoea</title>
<path fill="none" stroke="black" d="M107.07,-72.41C112.69,-64.22 119.6,-54.14 125.9,-44.95"/>
<polygon fill="black" stroke="black" points="128.78,-46.95 131.54,-36.72 123,-42.99 128.78,-46.95"/>
</g>
<!-- Smoker -->
<g id="node5" class="node">
<title>Smoker</title>
<ellipse fill="none" stroke="black" cx="147.7" cy="-162" rx="40.09" ry="18"/>
<text xml:space="preserve" text-anchor="middle" x="147.7" y="-156.95" font-family="Times New Roman,serif" font-size="14.00">Smoker</text>
</g>
<!-- Smoker&#45;&gt;Cancer -->
<g id="edge4" class="edge">
<title>Smoker&#45;&gt;Cancer</title>
<path fill="none" stroke="black" d="M135.37,-144.41C129.22,-136.13 121.64,-125.92 114.76,-116.66"/>
<polygon fill="black" stroke="black" points="117.61,-114.62 108.83,-108.68 111.99,-118.8 117.61,-114.62"/>
</g>
</g>
</svg>
