<?xml version="1.0" encoding="UTF-8" standalone="no"?>
<!DOCTYPE svg PUBLIC "-//W3C//DTD SVG 1.1//EN"
 "http://www.w3.org/Graphics/SVG/1.1/DTD/svg11.dtd">
<!-- Generated by graphviz version 14.1.3 (0)
 -->
<!-- Title: unknown Pages: 1 -->
<svg width="357pt" height="193pt"
 viewBox="0.00 0.00 357.00 193.00" xmlns="http://www.w3.org/2000/svg" xmlns:xlink="http://www.w3.org/1999/xlink">
<g id="graph0" class="graph" transform="scale(1 1) rotate(0) translate(4 189.13)">
<title>unknown</title>
<polygon fill="white" stroke="none" points="-4,4 -4,-189.13 352.56,-189.13 352.56,4 -4,4"/>
<!-- asia -->
<g id="node1" class="node">
<title>asia</title>
<ellipse fill="none" stroke="black" cx="31.22" cy="-167.13" rx="31.22" ry="18"/>
<text xml:space="preserve" text-anchor="middle" x="31.22" y="-162.46" font-family="Times,serif" font-size="14.00">asia</text>
</g>
<!-- tub -->
<g id="node2" class="node">
<title>tub</title>
<ellipse fill="none" stroke="black" cx="96.18" cy="-130.02" rx="28.06" ry="18"/>
<text xml:space="preserve" text-anchor="middle" x="96.18" y="-125.35" font-family="Times,serif" font-size="14.00">tub</text>
</g>
<!-- asia&#45;&gt;tub -->
<g id="edge1" class="edge">
<title>asia&#45;&gt;tub</title>
<path fill="none" stroke="black" d="M53.57,-154.36C57.24,-152.27 61.09,-150.07 64.93,-147.87"/>
<polygon fill="black" stroke="black" points="66.61,-150.94 73.56,-142.94 63.14,-144.86 66.61,-150.94"/>
</g>
<!-- either -->
<g id="node6" class="node">
<title>either</title>
<ellipse fill="none" stroke="black" cx="166.77" cy="-92.08" rx="41.21" ry="18"/>
<text xml:space="preserve" text-anchor="middle" x="166.77" y="-87.41" font-family="Times,serif" font-size="14.00">either</text>
</g>
<!-- tub&#45;&gt;either -->
<g id="edge2" class="edge">
<title>tub&#45;&gt;either</title>
<path fill="none" stroke="black" d="M118.13,-118.23C122.09,-116.1 126.31,-113.83 130.55,-111.55"/>
<polygon fill="black" stroke="black" points="131.89,-114.81 139.04,-106.99 128.57,-108.64 131.89,-114.81"/>
</g>
<!-- smoke -->
<g id="node3" class="node">
<title>smoke</title>
<ellipse fill="none" stroke="black" cx="295.22" cy="-156.97" rx="43.32" ry="18"/>
<text xml:space="preserve" text-anchor="middle" x="295.22" y="-152.29" font-family="Times,serif" font-size="14.00">smoke</text>
</g>
<!-- lung -->
<g id="node4" class="node">
<title>lung</title>
<ellipse fill="none" stroke="black" cx="216.44" cy="-158.34" rx="33.32" ry="18"/>
<text xml:space="preserve" text-anchor="middle" x="216.44" y="-153.66" font-family="Times,serif" font-size="14.00">lung</text>
</g>
<!-- smoke&#45;&gt;lung -->
<g id="edge3" class="edge">
<title>smoke&#45;&gt;lung</title>
<path fill="none" stroke="black" d="M251.68,-157.72C251.54,-157.73 251.4,-157.73 251.26,-157.73"/>
<polygon fill="black" stroke="black" points="261.43,-154.05 251.49,-157.73 261.55,-161.05 261.43,-154.05"/>
</g>
<!-- bronc -->
<g id="node5" class="node">
<title>bronc</title>
<ellipse fill="none" stroke="black" cx="308.92" cy="-80.85" rx="39.63" ry="18"/>
<text xml:space="preserve" text-anchor="middle" x="308.92" y="-76.18" font-family="Times,serif" font-size="14.00">bronc</text>
</g>
<!-- smoke&#45;&gt;bronc -->
<g id="edge4" class="edge">
<title>smoke&#45;&gt;bronc</title>
<path fill="none" stroke="black" d="M298.54,-138.54C300.07,-130.03 301.93,-119.72 303.64,-110.19"/>
<polygon fill="black" stroke="black" points="307.04,-111.06 305.37,-100.6 300.15,-109.82 307.04,-111.06"/>
</g>
<!-- lung&#45;&gt;either -->
<g id="edge5" class="edge">
<title>lung&#45;&gt;either</title>
<path fill="none" stroke="black" d="M203.65,-141.27C198.42,-134.3 192.25,-126.06 186.46,-118.35"/>
<polygon fill="black" stroke="black" points="189.4,-116.43 180.6,-110.53 183.8,-120.63 189.4,-116.43"/>
</g>
<!-- dysp -->
<g id="node8" class="node">
<title>dysp</title>
<ellipse fill="none" stroke="black" cx="236.23" cy="-50.14" rx="34.9" ry="18"/>
<text xml:space="preserve" text-anchor="middle" x="236.23" y="-45.46" font-family="Times,serif" font-size="14.00">dysp</text>
</g>
<!-- bronc&#45;&gt;dysp -->
<g id="edge6" class="edge">
<title>bronc&#45;&gt;dysp</title>
<path fill="none" stroke="black" d="M279.36,-68.36C277.57,-67.61 275.77,-66.84 273.95,-66.08"/>
<polygon fill="black" stroke="black" points="275.63,-62.99 265.05,-62.32 272.9,-69.43 275.63,-62.99"/>
</g>
<!-- xray -->
<g id="node7" class="node">
<title>xray</title>
<ellipse fill="none" stroke="black" cx="131.42" cy="-18" rx="33.32" ry="18"/>
<text xml:space="preserve" text-anchor="middle" x="131.42" y="-13.32" font-family="Times,serif" font-size="14.00">xray</text>
</g>
<!-- either&#45;&gt;xray -->
<g id="edge7" class="edge">
<title>either&#45;&gt;xray</title>
<path fill="none" stroke="black" d="M158.22,-74.15C154.18,-65.69 149.26,-55.39 144.75,-45.94"/>
<polygon fill="black" stroke="black" points="148.02,-44.65 140.55,-37.13 141.7,-47.67 148.02,-44.65"/>
</g>
<!-- either&#45;&gt;dysp -->
<g id="edge8" class="edge">
<title>either&#45;&gt;dysp</title>
<path fill="none" stroke="black" d="M191.46,-77.18C195.49,-74.74 199.72,-72.18 203.91,-69.65"/>
<polygon fill="black" stroke="black" points="205.43,-72.82 212.18,-64.66 201.81,-66.83 205.43,-72.82"/>
</g>
</g>
</svg>
