<?xml version="1.0" encoding="UTF-8" standalone="no"?>
<!DOCTYPE svg PUBLIC "-//W3C//DTD SVG 1.1//EN"
 "http://www.w3.org/Graphics/SVG/1.1/DTD/svg11.dtd">
<!-- Generated by graphviz version 14.1.3 (0)
 -->
<!-- Pages: 1 -->
<svg width="533pt" height="450pt"
 viewBox="0.00 0.00 533.00 450.00" xmlns="http://www.w3.org/2000/svg" xmlns:xlink="http://www.w3.org/1999/xlink">
<g id="graph0" class="graph" transform="scale(1 1) rotate(0) translate(4 446.31)">
<polygon fill="white" stroke="none" points="-4,4 -4,-446.31 529.35,-446.31 529.35,4 -4,4"/>
<!-- Age -->
<g id="node1" class="node">
<title>Age</title>
<ellipse fill="none" stroke="black" cx="309.47" cy="-304.17" rx="30.16" ry="18"/>
<text xml:space="preserve" text-anchor="middle" x="309.47" y="-299.49" font-family="Times,serif" font-size="14.00">Age</text>
</g>
<!-- Disease -->
<g id="node2" class="node">
<title>Disease</title>
<ellipse fill="none" stroke="black" cx="243.15" cy="-262.57" rx="50.16" ry="18"/>
<text xml:space="preserve" text-anchor="middle" x="243.15" y="-257.89" font-family="Times,serif" font-size="14.00">Disease</text>
</g>
<!-- Age&#45;&gt;Disease -->
<g id="edge1" class="edge">
<title>Age&#45;&gt;Disease</title>
<path fill="none" stroke="black" d="M288.49,-291C285.1,-288.88 281.52,-286.63 277.91,-284.37"/>
<polygon fill="black" stroke="black" points="280.03,-281.57 269.69,-279.22 276.31,-287.5 280.03,-281.57"/>
</g>
<!-- LungParench -->
<g id="node4" class="node">
<title>LungParench</title>
<ellipse fill="none" stroke="black" cx="265.85" cy="-170.26" rx="76.99" ry="18"/>
<text xml:space="preserve" text-anchor="middle" x="265.85" y="-165.59" font-family="Times,serif" font-size="14.00">LungParench</text>
</g>
<!-- Disease&#45;&gt;LungParench -->
<g id="edge5" class="edge">
<title>Disease&#45;&gt;LungParench</title>
<path fill="none" stroke="black" d="M247.63,-244.33C250.78,-231.56 255.04,-214.23 258.65,-199.54"/>
<polygon fill="black" stroke="black" points="262.02,-200.48 261.01,-189.93 255.23,-198.81 262.02,-200.48"/>
</g>
<!-- DuctFlow -->
<g id="node7" class="node">
<title>DuctFlow</title>
<ellipse fill="none" stroke="black" cx="159.53" cy="-296.32" rx="59.1" ry="18"/>
<text xml:space="preserve" text-anchor="middle" x="159.53" y="-291.64" font-family="Times,serif" font-size="14.00">DuctFlow</text>
</g>
<!-- Disease&#45;&gt;DuctFlow -->
<g id="edge3" class="edge">
<title>Disease&#45;&gt;DuctFlow</title>
<path fill="none" stroke="black" d="M209.62,-276.1C208.48,-276.56 207.34,-277.02 206.19,-277.48"/>
<polygon fill="black" stroke="black" points="205.17,-274.12 197.21,-281.11 207.79,-280.61 205.17,-274.12"/>
</g>
<!-- LungFlow -->
<g id="node8" class="node">
<title>LungFlow</title>
<ellipse fill="none" stroke="black" cx="229.24" cy="-191.44" rx="60.68" ry="18"/>
<text xml:space="preserve" text-anchor="middle" x="229.24" y="-186.76" font-family="Times,serif" font-size="14.00">LungFlow</text>
</g>
<!-- Disease&#45;&gt;LungFlow -->
<g id="edge2" class="edge">
<title>Disease&#45;&gt;LungFlow</title>
<path fill="none" stroke="black" d="M239.57,-244.25C238.16,-237.06 236.51,-228.63 234.95,-220.64"/>
<polygon fill="black" stroke="black" points="238.41,-220.08 233.05,-210.93 231.54,-221.42 238.41,-220.08"/>
</g>
<!-- CardiacMixing -->
<g id="node9" class="node">
<title>CardiacMixing</title>
<ellipse fill="none" stroke="black" cx="161.05" cy="-235.63" rx="84.35" ry="18"/>
<text xml:space="preserve" text-anchor="middle" x="161.05" y="-230.96" font-family="Times,serif" font-size="14.00">CardiacMixing</text>
</g>
<!-- Disease&#45;&gt;CardiacMixing -->
<g id="edge4" class="edge">
<title>Disease&#45;&gt;CardiacMixing</title>
<path fill="none" stroke="black" d="M205.94,-250.36C205.9,-250.35 205.86,-250.33 205.81,-250.32"/>
<polygon fill="black" stroke="black" points="217.72,-250.55 207.12,-250.75 215.53,-257.2 217.72,-250.55"/>
</g>
<!-- Sick -->
<g id="node3" class="node">
<title>Sick</title>
<ellipse fill="none" stroke="black" cx="327.94" cy="-257.88" rx="32.27" ry="18"/>
<text xml:space="preserve" text-anchor="middle" x="327.94" y="-253.2" font-family="Times,serif" font-size="14.00">Sick</text>
</g>
<!-- Sick&#45;&gt;Age -->
<g id="edge8" class="edge">
<title>Sick&#45;&gt;Age</title>
<path fill="none" stroke="black" d="M320.75,-275.91C320.7,-276.01 320.66,-276.12 320.62,-276.23"/>
<polygon fill="black" stroke="black" points="317.57,-274.42 317.11,-285.01 324.07,-277.02 317.57,-274.42"/>
</g>
<!-- Sick&#45;&gt;Disease -->
<g id="edge7" class="edge">
<title>Sick&#45;&gt;Disease</title>
<path fill="none" stroke="black" d="M295.4,-259.68C295.31,-259.68 295.21,-259.69 295.12,-259.69"/>
<polygon fill="black" stroke="black" points="304.45,-255.67 294.66,-259.72 304.84,-262.66 304.45,-255.67"/>
</g>
<!-- Grunting -->
<g id="node10" class="node">
<title>Grunting</title>
<ellipse fill="none" stroke="black" cx="351.46" cy="-189.11" rx="56.47" ry="18"/>
<text xml:space="preserve" text-anchor="middle" x="351.46" y="-184.43" font-family="Times,serif" font-size="14.00">Grunting</text>
</g>
<!-- Sick&#45;&gt;Grunting -->
<g id="edge6" class="edge">
<title>Sick&#45;&gt;Grunting</title>
<path fill="none" stroke="black" d="M334.12,-239.81C336.4,-233.15 339.04,-225.43 341.56,-218.05"/>
<polygon fill="black" stroke="black" points="344.83,-219.32 344.75,-208.73 338.2,-217.06 344.83,-219.32"/>
</g>
<!-- LungParench&#45;&gt;Grunting -->
<g id="edge10" class="edge">
<title>LungParench&#45;&gt;Grunting</title>
<path fill="none" stroke="black" d="M322.48,-182.73C322.54,-182.74 322.6,-182.76 322.66,-182.77"/>
<polygon fill="black" stroke="black" points="310.85,-183.75 321.37,-182.49 312.36,-176.91 310.85,-183.75"/>
</g>
<!-- ChestXray -->
<g id="node13" class="node">
<title>ChestXray</title>
<ellipse fill="none" stroke="black" cx="243.06" cy="-101.78" rx="63.31" ry="18"/>
<text xml:space="preserve" text-anchor="middle" x="243.06" y="-97.11" font-family="Times,serif" font-size="14.00">ChestXray</text>
</g>
<!-- LungParench&#45;&gt;ChestXray -->
<g id="edge9" class="edge">
<title>LungParench&#45;&gt;ChestXray</title>
<path fill="none" stroke="black" d="M259.74,-151.91C257.6,-145.46 255.13,-138.05 252.76,-130.94"/>
<polygon fill="black" stroke="black" points="256.14,-130 249.66,-121.62 249.5,-132.21 256.14,-130"/>
</g>
<!-- BirthAsphyxia -->
<g id="node5" class="node">
<title>BirthAsphyxia</title>
<ellipse fill="none" stroke="black" cx="210.79" cy="-335.31" rx="82.25" ry="18"/>
<text xml:space="preserve" text-anchor="middle" x="210.79" y="-330.64" font-family="Times,serif" font-size="14.00">BirthAsphyxia</text>
</g>
<!-- BirthAsphyxia&#45;&gt;Disease -->
<g id="edge11" class="edge">
<title>BirthAsphyxia&#45;&gt;Disease</title>
<path fill="none" stroke="black" d="M218.95,-316.96C222.43,-309.14 226.56,-299.85 230.43,-291.17"/>
<polygon fill="black" stroke="black" points="233.62,-292.61 234.48,-282.05 227.22,-289.76 233.62,-292.61"/>
</g>
<!-- LVH -->
<g id="node6" class="node">
<title>LVH</title>
<ellipse fill="none" stroke="black" cx="268.55" cy="-349.04" rx="31.74" ry="18"/>
<text xml:space="preserve" text-anchor="middle" x="268.55" y="-344.37" font-family="Times,serif" font-size="14.00">LVH</text>
</g>
<!-- LVH&#45;&gt;Disease -->
<g id="edge13" class="edge">
<title>LVH&#45;&gt;Disease</title>
<path fill="none" stroke="black" d="M263.28,-331.12C259.94,-319.72 255.52,-304.69 251.68,-291.61"/>
<polygon fill="black" stroke="black" points="255.1,-290.82 248.92,-282.21 248.38,-292.79 255.1,-290.82"/>
</g>
<!-- LVHreport -->
<g id="node20" class="node">
<title>LVHreport</title>
<ellipse fill="none" stroke="black" cx="297.12" cy="-424.31" rx="63.31" ry="18"/>
<text xml:space="preserve" text-anchor="middle" x="297.12" y="-419.64" font-family="Times,serif" font-size="14.00">LVHreport</text>
</g>
<!-- LVH&#45;&gt;LVHreport -->
<g id="edge12" class="edge">
<title>LVH&#45;&gt;LVHreport</title>
<path fill="none" stroke="black" d="M275.32,-366.88C278.55,-375.38 282.49,-385.76 286.13,-395.35"/>
<polygon fill="black" stroke="black" points="282.84,-396.56 289.66,-404.67 289.39,-394.07 282.84,-396.56"/>
</g>
<!-- HypDistrib -->
<g id="node15" class="node">
<title>HypDistrib</title>
<ellipse fill="none" stroke="black" cx="85.54" cy="-262.42" rx="66.47" ry="18"/>
<text xml:space="preserve" text-anchor="middle" x="85.54" y="-257.74" font-family="Times,serif" font-size="14.00">HypDistrib</text>
</g>
<!-- DuctFlow&#45;&gt;HypDistrib -->
<g id="edge14" class="edge">
<title>DuctFlow&#45;&gt;HypDistrib</title>
<path fill="none" stroke="black" d="M126.43,-281.15C126.29,-281.09 126.16,-281.03 126.02,-280.97"/>
<polygon fill="black" stroke="black" points="131.87,-279.79 121.32,-278.81 128.95,-286.16 131.87,-279.79"/>
</g>
<!-- LungFlow&#45;&gt;ChestXray -->
<g id="edge15" class="edge">
<title>LungFlow&#45;&gt;ChestXray</title>
<path fill="none" stroke="black" d="M232.04,-173.3C233.9,-161.22 236.38,-145.09 238.53,-131.2"/>
<polygon fill="black" stroke="black" points="241.93,-132.12 239.99,-121.7 235.01,-131.05 241.93,-132.12"/>
</g>
<!-- HypoxiaInO2 -->
<g id="node11" class="node">
<title>HypoxiaInO2</title>
<ellipse fill="none" stroke="black" cx="165.49" cy="-153.12" rx="76.46" ry="18"/>
<text xml:space="preserve" text-anchor="middle" x="165.49" y="-148.45" font-family="Times,serif" font-size="14.00">HypoxiaInO2</text>
</g>
<!-- CardiacMixing&#45;&gt;HypoxiaInO2 -->
<g id="edge16" class="edge">
<title>CardiacMixing&#45;&gt;HypoxiaInO2</title>
<path fill="none" stroke="black" d="M162.03,-217.32C162.58,-207.17 163.27,-194.31 163.89,-182.76"/>
<polygon fill="black" stroke="black" points="167.38,-183.07 164.42,-172.89 160.39,-182.69 167.38,-183.07"/>
</g>
<!-- CardiacMixing&#45;&gt;HypDistrib -->
<g id="edge17" class="edge">
<title>CardiacMixing&#45;&gt;HypDistrib</title>
<path fill="none" stroke="black" d="M116.69,-251.37C116.62,-251.39 116.56,-251.41 116.49,-251.44"/>
<polygon fill="black" stroke="black" points="125.98,-244.35 117.73,-251 128.32,-250.95 125.98,-244.35"/>
</g>
<!-- GruntingReport -->
<g id="node18" class="node">
<title>GruntingReport</title>
<ellipse fill="none" stroke="black" cx="434.68" cy="-187.2" rx="90.67" ry="18"/>
<text xml:space="preserve" text-anchor="middle" x="434.68" y="-182.52" font-family="Times,serif" font-size="14.00">GruntingReport</text>
</g>
<!-- Grunting&#45;&gt;GruntingReport -->
<g id="edge18" class="edge">
<title>Grunting&#45;&gt;GruntingReport</title>
<path fill="none" stroke="black" d="M407.89,-187.81C407.95,-187.81 408.01,-187.81 408.07,-187.81"/>
<polygon fill="black" stroke="black" points="396.81,-191.57 406.73,-187.84 396.65,-184.58 396.81,-191.57"/>
</g>
<!-- HypoxiaInO2&#45;&gt;LungParench -->
<g id="edge19" class="edge">
<title>HypoxiaInO2&#45;&gt;LungParench</title>
<path fill="none" stroke="black" d="M228.19,-163.83C228.27,-163.85 228.35,-163.86 228.43,-163.87"/>
<polygon fill="black" stroke="black" points="216.73,-165.42 227.18,-163.66 217.91,-158.52 216.73,-165.42"/>
</g>
<!-- LowerBodyO2 -->
<g id="node16" class="node">
<title>LowerBodyO2</title>
<ellipse fill="none" stroke="black" cx="81.72" cy="-179.94" rx="81.72" ry="18"/>
<text xml:space="preserve" text-anchor="middle" x="81.72" y="-175.26" font-family="Times,serif" font-size="14.00">LowerBodyO2</text>
</g>
<!-- HypoxiaInO2&#45;&gt;LowerBodyO2 -->
<g id="edge21" class="edge">
<title>HypoxiaInO2&#45;&gt;LowerBodyO2</title>
<path fill="none" stroke="black" d="M119.68,-167.79C119.61,-167.81 119.53,-167.83 119.45,-167.86"/>
<polygon fill="black" stroke="black" points="129.12,-161.08 120.67,-167.47 131.26,-167.75 129.12,-161.08"/>
</g>
<!-- RUQO2 -->
<g id="node17" class="node">
<title>RUQO2</title>
<ellipse fill="none" stroke="black" cx="114.92" cy="-84.8" rx="49.1" ry="18"/>
<text xml:space="preserve" text-anchor="middle" x="114.92" y="-80.12" font-family="Times,serif" font-size="14.00">RUQO2</text>
</g>
<!-- HypoxiaInO2&#45;&gt;RUQO2 -->
<g id="edge20" class="edge">
<title>HypoxiaInO2&#45;&gt;RUQO2</title>
<path fill="none" stroke="black" d="M152.2,-135.17C146.87,-127.97 140.62,-119.53 134.78,-111.63"/>
<polygon fill="black" stroke="black" points="137.6,-109.56 128.84,-103.61 131.98,-113.73 137.6,-109.56"/>
</g>
<!-- CO2 -->
<g id="node12" class="node">
<title>CO2</title>
<ellipse fill="none" stroke="black" cx="322.45" cy="-105.14" rx="32.79" ry="18"/>
<text xml:space="preserve" text-anchor="middle" x="322.45" y="-100.47" font-family="Times,serif" font-size="14.00">CO2</text>
</g>
<!-- CO2&#45;&gt;LungParench -->
<g id="edge22" class="edge">
<title>CO2&#45;&gt;LungParench</title>
<path fill="none" stroke="black" d="M308.17,-121.57C302.33,-128.29 295.43,-136.23 288.91,-143.73"/>
<polygon fill="black" stroke="black" points="286.43,-141.25 282.52,-151.09 291.72,-145.84 286.43,-141.25"/>
</g>
<!-- CO2Report -->
<g id="node14" class="node">
<title>CO2Report</title>
<ellipse fill="none" stroke="black" cx="375.83" cy="-43.6" rx="66.99" ry="18"/>
<text xml:space="preserve" text-anchor="middle" x="375.83" y="-38.93" font-family="Times,serif" font-size="14.00">CO2Report</text>
</g>
<!-- CO2&#45;&gt;CO2Report -->
<g id="edge23" class="edge">
<title>CO2&#45;&gt;CO2Report</title>
<path fill="none" stroke="black" d="M336.76,-88.65C341.77,-82.87 347.53,-76.24 353.06,-69.86"/>
<polygon fill="black" stroke="black" points="355.46,-72.43 359.37,-62.58 350.18,-67.84 355.46,-72.43"/>
</g>
<!-- XrayReport -->
<g id="node19" class="node">
<title>XrayReport</title>
<ellipse fill="none" stroke="black" cx="236.63" cy="-18" rx="68.57" ry="18"/>
<text xml:space="preserve" text-anchor="middle" x="236.63" y="-13.32" font-family="Times,serif" font-size="14.00">XrayReport</text>
</g>
<!-- ChestXray&#45;&gt;XrayReport -->
<g id="edge24" class="edge">
<title>ChestXray&#45;&gt;XrayReport</title>
<path fill="none" stroke="black" d="M241.67,-83.6C240.86,-73.14 239.83,-59.72 238.92,-47.76"/>
<polygon fill="black" stroke="black" points="242.42,-47.65 238.16,-37.94 235.44,-48.18 242.42,-47.65"/>
</g>
<!-- LowerBodyO2&#45;&gt;HypDistrib -->
<g id="edge25" class="edge">
<title>LowerBodyO2&#45;&gt;HypDistrib</title>
<path fill="none" stroke="black" d="M82.57,-198.24C83.04,-208.39 83.63,-221.25 84.17,-232.78"/>
<polygon fill="black" stroke="black" points="80.66,-232.82 84.62,-242.65 87.66,-232.5 80.66,-232.82"/>
</g>
</g>
</svg>
