<?xml version="1.0" encoding="UTF-8" standalone="no"?>
<!DOCTYPE svg PUBLIC "-//W3C//DTD SVG 1.1//EN"
 "http://www.w3.org/Graphics/SVG/1.1/DTD/svg11.dtd">
<!-- Generated by graphviz version 14.1.3 (0)
 -->
<!-- Title: unknown Pages: 1 -->
<svg width="236pt" height="157pt"
 viewBox="0.00 0.00 236.00 157.00" xmlns="http://www.w3.org/2000/svg" xmlns:xlink="http://www.w3.org/1999/xlink">
<g id="graph0" class="graph" transform="scale(1 1) rotate(0) translate(4 152.6)">
<title>unknown</title>
<polygon fill="white" stroke="none" points="-4,4 -4,-152.6 231.79,-152.6 231.79,4 -4,4"/>
<!-- Pollution -->
<g id="node1" class="node">
<title>Pollution</title>
<ellipse fill="none" stroke="black" cx="55.42" cy="-130.6" rx="55.42" ry="18"/>
<text xml:space="preserve" text-anchor="middle" x="55.42" y="-125.92" font-family="Times,serif" font-size="14.00">Pollution</text>
</g>
<!-- Cancer -->
<g id="node3" class="node">
<title>Cancer</title>
<ellipse fill="none" stroke="black" cx="111.65" cy="-74.46" rx="46.47" ry="18"/>
<text xml:space="preserve" text-anchor="middle" x="111.65" y="-69.78" font-family="Times,serif" font-size="14.00">Cancer</text>
</g>
<!-- Pollution&#45;&gt;Cancer -->
<g id="edge1" class="edge">
<title>Pollution&#45;&gt;Cancer</title>
<path fill="none" stroke="black" d="M72.9,-113.14C77.25,-108.8 82,-104.05 86.64,-99.42"/>
<polygon fill="black" stroke="black" points="89.08,-101.94 93.68,-92.39 84.13,-96.98 89.08,-101.94"/>
</g>
<!-- Smoker -->
<g id="node2" class="node">
<title>Smoker</title>
<ellipse fill="none" stroke="black" cx="167.9" cy="-130.57" rx="49.63" ry="18"/>
<text xml:space="preserve" text-anchor="middle" x="167.9" y="-125.89" font-family="Times,serif" font-size="14.00">Smoker</text>
</g>
<!-- Smoker&#45;&gt;Cancer -->
<g id="edge2" class="edge">
<title>Smoker&#45;&gt;Cancer</title>
<path fill="none" stroke="black" d="M150.72,-113.43C146.25,-108.97 141.34,-104.07 136.56,-99.3"/>
<polygon fill="black" stroke="black" points="139.35,-97.14 129.8,-92.56 134.41,-102.1 139.35,-97.14"/>
</g>
<!-- Xray -->
<g id="node4" class="node">
<title>Xray</title>
<ellipse fill="none" stroke="black" cx="55.7" cy="-18" rx="34.37" ry="18"/>
<text xml:space="preserve" text-anchor="middle" x="55.7" y="-13.32" font-family="Times,serif" font-size="14.00">Xray</text>
</g>
<!-- Cancer&#45;&gt;Xray -->
<g id="edge3" class="edge">
<title>Cancer&#45;&gt;Xray</title>
<path fill="none" stroke="black" d="M94.86,-57.52C90.05,-52.66 84.7,-47.26 79.55,-42.06"/>
<polygon fill="black" stroke="black" points="82.3,-39.87 72.77,-35.23 77.33,-44.79 82.3,-39.87"/>
</g>
<!-- Dyspnoea -->
<g id="node5" class="node">
<title>Dyspnoea</title>
<ellipse fill="none" stroke="black" cx="167.64" cy="-18.05" rx="60.15" ry="18"/>
<text xml:space="preserve" text-anchor="middle" x="167.64" y="-13.37" font-family="Times,serif" font-size="14.00">Dyspnoea</text>
</g>
<!-- Cancer&#45;&gt;Dyspnoea -->
<g id="edge4" class="edge">
<title>Cancer&#45;&gt;Dyspnoea</title>
<path fill="none" stroke="black" d="M128.45,-57.53C132.71,-53.23 137.4,-48.51 141.99,-43.88"/>
<polygon fill="black" stroke="black" points="144.44,-46.38 149.01,-36.82 139.48,-41.45 144.44,-46.38"/>
</g>
</g>
</svg>
