<?xml version="1.0" encoding="UTF-8" standalone="no"?>
<!DOCTYPE svg PUBLIC "-//W3C//DTD SVG 1.1//EN"
 "http://www.w3.org/Graphics/SVG/1.1/DTD/svg11.dtd">
<!-- Generated by graphviz version 14.1.3 (20260303.0454)
 -->
<!-- Pages: 1 -->
<svg width="1065pt" height="476pt"
 viewBox="0.00 0.00 1065.00 476.00" xmlns="http://www.w3.org/2000/svg" xmlns:xlink="http://www.w3.org/1999/xlink">
<g id="graph0" class="graph" transform="scale(1 1) rotate(0) translate(4 472)">
<polygon fill="white" stroke="none" points="-4,4 -4,-472 1060.52,-472 1060.52,4 -4,4"/>
<!-- LVH -->
<g id="node1" class="node">
<title>LVH</title>
<ellipse fill="none" stroke="black" cx="168.35" cy="-450" rx="29.34" ry="18"/>
<text xml:space="preserve" text-anchor="middle" x="168.35" y="-444.95" font-family="Times New Roman,serif" font-size="14.00">LVH</text>
</g>
<!-- CardiacMixing -->
<g id="node2" class="node">
<title>CardiacMixing</title>
<ellipse fill="none" stroke="black" cx="442.35" cy="-18" rx="67.22" ry="18"/>
<text xml:space="preserve" text-anchor="middle" x="442.35" y="-12.95" font-family="Times New Roman,serif" font-size="14.00">CardiacMixing</text>
</g>
<!-- LVH&#45;&gt;CardiacMixing -->
<g id="edge1" class="edge">
<title>LVH&#45;&gt;CardiacMixing</title>
<path fill="none" stroke="black" d="M160.84,-432.34C149.77,-406.2 130.35,-353.7 130.35,-307 130.35,-307 130.35,-307 130.35,-161 130.35,-58.31 272.1,-29.54 364.51,-21.69"/>
<polygon fill="black" stroke="black" points="364.59,-25.2 374.29,-20.93 364.05,-18.22 364.59,-25.2"/>
</g>
<!-- DuctFlow -->
<g id="node3" class="node">
<title>DuctFlow</title>
<ellipse fill="none" stroke="black" cx="360.35" cy="-306" rx="47.77" ry="18"/>
<text xml:space="preserve" text-anchor="middle" x="360.35" y="-300.95" font-family="Times New Roman,serif" font-size="14.00">DuctFlow</text>
</g>
<!-- LVH&#45;&gt;DuctFlow -->
<g id="edge2" class="edge">
<title>LVH&#45;&gt;DuctFlow</title>
<path fill="none" stroke="black" d="M190.42,-437.72C209.32,-427.69 236.96,-412.15 259.35,-396 287.09,-375.99 316.12,-349.78 335.9,-330.99"/>
<polygon fill="black" stroke="black" points="338.16,-333.68 342.95,-324.23 333.31,-328.63 338.16,-333.68"/>
</g>
<!-- LVHreport -->
<g id="node4" class="node">
<title>LVHreport</title>
<ellipse fill="none" stroke="black" cx="51.35" cy="-378" rx="51.35" ry="18"/>
<text xml:space="preserve" text-anchor="middle" x="51.35" y="-372.95" font-family="Times New Roman,serif" font-size="14.00">LVHreport</text>
</g>
<!-- LVH&#45;&gt;LVHreport -->
<g id="edge3" class="edge">
<title>LVH&#45;&gt;LVHreport</title>
<path fill="none" stroke="black" d="M147.7,-436.65C130.64,-426.44 106.05,-411.73 85.99,-399.72"/>
<polygon fill="black" stroke="black" points="87.94,-396.81 77.56,-394.68 84.35,-402.82 87.94,-396.81"/>
</g>
<!-- Age -->
<g id="node5" class="node">
<title>Age</title>
<ellipse fill="none" stroke="black" cx="223.35" cy="-378" rx="27" ry="18"/>
<text xml:space="preserve" text-anchor="middle" x="223.35" y="-372.95" font-family="Times New Roman,serif" font-size="14.00">Age</text>
</g>
<!-- LVH&#45;&gt;Age -->
<g id="edge4" class="edge">
<title>LVH&#45;&gt;Age</title>
<path fill="none" stroke="black" d="M180.56,-433.46C187.46,-424.67 196.26,-413.48 204.08,-403.53"/>
<polygon fill="black" stroke="black" points="206.82,-405.71 210.25,-395.68 201.32,-401.38 206.82,-405.71"/>
</g>
<!-- LungFlow -->
<g id="node6" class="node">
<title>LungFlow</title>
<ellipse fill="none" stroke="black" cx="283.35" cy="-90" rx="49.31" ry="18"/>
<text xml:space="preserve" text-anchor="middle" x="283.35" y="-84.95" font-family="Times New Roman,serif" font-size="14.00">LungFlow</text>
</g>
<!-- LVH&#45;&gt;LungFlow -->
<g id="edge5" class="edge">
<title>LVH&#45;&gt;LungFlow</title>
<path fill="none" stroke="black" d="M168.35,-431.51C168.35,-404.71 168.35,-351.87 168.35,-307 168.35,-307 168.35,-307 168.35,-233 168.35,-180.81 215.85,-137.05 249.8,-112.44"/>
<polygon fill="black" stroke="black" points="251.54,-115.49 257.72,-106.89 247.52,-109.76 251.54,-115.49"/>
</g>
<!-- DuctFlow&#45;&gt;CardiacMixing -->
<g id="edge6" class="edge">
<title>DuctFlow&#45;&gt;CardiacMixing</title>
<path fill="none" stroke="black" d="M357.47,-287.7C351.61,-247.3 341.85,-144.67 379.35,-72 385.49,-60.11 395.55,-49.83 405.86,-41.58"/>
<polygon fill="black" stroke="black" points="407.75,-44.53 413.68,-35.75 403.57,-38.92 407.75,-44.53"/>
</g>
<!-- LungParench -->
<g id="node7" class="node">
<title>LungParench</title>
<ellipse fill="none" stroke="black" cx="448.35" cy="-234" rx="60.05" ry="18"/>
<text xml:space="preserve" text-anchor="middle" x="448.35" y="-228.95" font-family="Times New Roman,serif" font-size="14.00">LungParench</text>
</g>
<!-- DuctFlow&#45;&gt;LungParench -->
<g id="edge7" class="edge">
<title>DuctFlow&#45;&gt;LungParench</title>
<path fill="none" stroke="black" d="M379.88,-289.46C391.37,-280.32 406.13,-268.59 419,-258.35"/>
<polygon fill="black" stroke="black" points="421.13,-261.13 426.78,-252.16 416.77,-255.65 421.13,-261.13"/>
</g>
<!-- Age&#45;&gt;CardiacMixing -->
<g id="edge8" class="edge">
<title>Age&#45;&gt;CardiacMixing</title>
<path fill="none" stroke="black" d="M219.99,-360.03C215.04,-333.48 206.35,-280.44 206.35,-235 206.35,-235 206.35,-235 206.35,-161 206.35,-120.55 197.17,-101.02 225.35,-72 245.51,-51.24 315.9,-36.68 371.11,-28.14"/>
<polygon fill="black" stroke="black" points="371.42,-31.63 380.78,-26.68 370.37,-24.71 371.42,-31.63"/>
</g>
<!-- Age&#45;&gt;DuctFlow -->
<g id="edge9" class="edge">
<title>Age&#45;&gt;DuctFlow</title>
<path fill="none" stroke="black" d="M244.46,-366.22C265.3,-355.56 297.64,-339.04 322.86,-326.16"/>
<polygon fill="black" stroke="black" points="324.17,-329.42 331.48,-321.75 320.99,-323.19 324.17,-329.42"/>
</g>
<!-- Age&#45;&gt;LungFlow -->
<g id="edge10" class="edge">
<title>Age&#45;&gt;LungFlow</title>
<path fill="none" stroke="black" d="M226.59,-359.7C233.89,-320.97 252.4,-224.35 270.35,-144 272.16,-135.92 274.24,-127.19 276.21,-119.19"/>
<polygon fill="black" stroke="black" points="279.58,-120.16 278.59,-109.61 272.78,-118.47 279.58,-120.16"/>
</g>
<!-- LungFlow&#45;&gt;CardiacMixing -->
<g id="edge11" class="edge">
<title>LungFlow&#45;&gt;CardiacMixing</title>
<path fill="none" stroke="black" d="M314.01,-75.5C337.91,-64.98 371.42,-50.23 398.21,-38.43"/>
<polygon fill="black" stroke="black" points="399.36,-41.75 407.11,-34.52 396.54,-35.34 399.36,-41.75"/>
</g>
<!-- LungFlow&#45;&gt;DuctFlow -->
<g id="edge12" class="edge">
<title>LungFlow&#45;&gt;DuctFlow</title>
<path fill="none" stroke="black" d="M289.55,-108.23C302.84,-145.17 334.17,-232.24 350.33,-277.14"/>
<polygon fill="black" stroke="black" points="346.99,-278.2 353.67,-286.43 353.58,-275.83 346.99,-278.2"/>
</g>
<!-- LungParench&#45;&gt;CardiacMixing -->
<g id="edge13" class="edge">
<title>LungParench&#45;&gt;CardiacMixing</title>
<path fill="none" stroke="black" d="M470.84,-217.01C482.12,-207.63 494.77,-194.73 501.35,-180 520.96,-136.15 525.62,-115.55 505.35,-72 499.71,-59.87 489.77,-49.53 479.43,-41.29"/>
<polygon fill="black" stroke="black" points="481.69,-38.6 471.56,-35.49 477.53,-44.24 481.69,-38.6"/>
</g>
<!-- Grunting -->
<g id="node8" class="node">
<title>Grunting</title>
<ellipse fill="none" stroke="black" cx="776.35" cy="-162" rx="44.19" ry="18"/>
<text xml:space="preserve" text-anchor="middle" x="776.35" y="-156.95" font-family="Times New Roman,serif" font-size="14.00">Grunting</text>
</g>
<!-- LungParench&#45;&gt;Grunting -->
<g id="edge14" class="edge">
<title>LungParench&#45;&gt;Grunting</title>
<path fill="none" stroke="black" d="M493.2,-221.68C501.23,-219.73 509.53,-217.76 517.35,-216 589.57,-199.72 673.61,-182.91 725.9,-172.71"/>
<polygon fill="black" stroke="black" points="726.57,-176.15 735.71,-170.8 725.23,-169.27 726.57,-176.15"/>
</g>
<!-- ChestXray -->
<g id="node9" class="node">
<title>ChestXray</title>
<ellipse fill="none" stroke="black" cx="442.35" cy="-162" rx="50.33" ry="18"/>
<text xml:space="preserve" text-anchor="middle" x="442.35" y="-156.95" font-family="Times New Roman,serif" font-size="14.00">ChestXray</text>
</g>
<!-- LungParench&#45;&gt;ChestXray -->
<g id="edge15" class="edge">
<title>LungParench&#45;&gt;ChestXray</title>
<path fill="none" stroke="black" d="M446.87,-215.7C446.24,-208.41 445.5,-199.73 444.8,-191.54"/>
<polygon fill="black" stroke="black" points="448.29,-191.27 443.95,-181.61 441.32,-191.87 448.29,-191.27"/>
</g>
<!-- GruntingReport -->
<g id="node14" class="node">
<title>GruntingReport</title>
<ellipse fill="none" stroke="black" cx="801.35" cy="-90" rx="69.26" ry="18"/>
<text xml:space="preserve" text-anchor="middle" x="801.35" y="-84.95" font-family="Times New Roman,serif" font-size="14.00">GruntingReport</text>
</g>
<!-- Grunting&#45;&gt;GruntingReport -->
<g id="edge21" class="edge">
<title>Grunting&#45;&gt;GruntingReport</title>
<path fill="none" stroke="black" d="M782.53,-143.7C785.23,-136.15 788.45,-127.12 791.47,-118.68"/>
<polygon fill="black" stroke="black" points="794.67,-120.12 794.73,-109.53 788.08,-117.77 794.67,-120.12"/>
</g>
<!-- ChestXray&#45;&gt;LungFlow -->
<g id="edge22" class="edge">
<title>ChestXray&#45;&gt;LungFlow</title>
<path fill="none" stroke="black" d="M411.69,-147.5C386.84,-136.56 351.58,-121.04 324.31,-109.03"/>
<polygon fill="black" stroke="black" points="325.86,-105.89 315.3,-105.07 323.04,-112.3 325.86,-105.89"/>
</g>
<!-- XrayReport -->
<g id="node15" class="node">
<title>XrayReport</title>
<ellipse fill="none" stroke="black" cx="442.35" cy="-90" rx="54.42" ry="18"/>
<text xml:space="preserve" text-anchor="middle" x="442.35" y="-84.95" font-family="Times New Roman,serif" font-size="14.00">XrayReport</text>
</g>
<!-- ChestXray&#45;&gt;XrayReport -->
<g id="edge23" class="edge">
<title>ChestXray&#45;&gt;XrayReport</title>
<path fill="none" stroke="black" d="M442.35,-143.7C442.35,-136.41 442.35,-127.73 442.35,-119.54"/>
<polygon fill="black" stroke="black" points="445.85,-119.61 442.35,-109.61 438.85,-119.61 445.85,-119.61"/>
</g>
<!-- HypDistrib -->
<g id="node10" class="node">
<title>HypDistrib</title>
<ellipse fill="none" stroke="black" cx="609.35" cy="-378" rx="52.38" ry="18"/>
<text xml:space="preserve" text-anchor="middle" x="609.35" y="-372.95" font-family="Times New Roman,serif" font-size="14.00">HypDistrib</text>
</g>
<!-- HypDistrib&#45;&gt;CardiacMixing -->
<g id="edge16" class="edge">
<title>HypDistrib&#45;&gt;CardiacMixing</title>
<path fill="none" stroke="black" d="M639.11,-362.81C654.86,-353.81 673.2,-340.71 684.35,-324 706.85,-290.27 704.35,-275.54 704.35,-235 704.35,-235 704.35,-235 704.35,-161 704.35,-120.55 713.89,-100.66 685.35,-72 661.91,-48.45 578.81,-34.06 516.27,-26.33"/>
<polygon fill="black" stroke="black" points="516.7,-22.85 506.35,-25.14 515.87,-29.8 516.7,-22.85"/>
</g>
<!-- HypDistrib&#45;&gt;DuctFlow -->
<g id="edge17" class="edge">
<title>HypDistrib&#45;&gt;DuctFlow</title>
<path fill="none" stroke="black" d="M569.62,-365.83C525.89,-353.54 455.6,-333.78 408.7,-320.59"/>
<polygon fill="black" stroke="black" points="409.93,-317.3 399.36,-317.97 408.04,-324.04 409.93,-317.3"/>
</g>
<!-- LowerBodyO2 -->
<g id="node11" class="node">
<title>LowerBodyO2</title>
<ellipse fill="none" stroke="black" cx="609.35" cy="-306" rx="66.19" ry="18"/>
<text xml:space="preserve" text-anchor="middle" x="609.35" y="-300.95" font-family="Times New Roman,serif" font-size="14.00">LowerBodyO2</text>
</g>
<!-- HypDistrib&#45;&gt;LowerBodyO2 -->
<g id="edge18" class="edge">
<title>HypDistrib&#45;&gt;LowerBodyO2</title>
<path fill="none" stroke="black" d="M609.35,-359.7C609.35,-352.41 609.35,-343.73 609.35,-335.54"/>
<polygon fill="black" stroke="black" points="612.85,-335.61 609.35,-325.61 605.85,-335.61 612.85,-335.61"/>
</g>
<!-- CO2 -->
<g id="node12" class="node">
<title>CO2</title>
<ellipse fill="none" stroke="black" cx="495.35" cy="-306" rx="28.32" ry="18"/>
<text xml:space="preserve" text-anchor="middle" x="495.35" y="-300.95" font-family="Times New Roman,serif" font-size="14.00">CO2</text>
</g>
<!-- CO2&#45;&gt;LungParench -->
<g id="edge19" class="edge">
<title>CO2&#45;&gt;LungParench</title>
<path fill="none" stroke="black" d="M484.69,-289.12C479.14,-280.85 472.21,-270.54 465.9,-261.14"/>
<polygon fill="black" stroke="black" points="468.95,-259.41 460.47,-253.06 463.14,-263.31 468.95,-259.41"/>
</g>
<!-- CO2Report -->
<g id="node13" class="node">
<title>CO2Report</title>
<ellipse fill="none" stroke="black" cx="579.35" cy="-234" rx="53.4" ry="18"/>
<text xml:space="preserve" text-anchor="middle" x="579.35" y="-228.95" font-family="Times New Roman,serif" font-size="14.00">CO2Report</text>
</g>
<!-- CO2&#45;&gt;CO2Report -->
<g id="edge20" class="edge">
<title>CO2&#45;&gt;CO2Report</title>
<path fill="none" stroke="black" d="M511.95,-291.17C523.21,-281.78 538.39,-269.14 551.48,-258.22"/>
<polygon fill="black" stroke="black" points="553.53,-261.07 558.98,-251.98 549.05,-255.69 553.53,-261.07"/>
</g>
<!-- Sick -->
<g id="node16" class="node">
<title>Sick</title>
<ellipse fill="none" stroke="black" cx="408.35" cy="-450" rx="27.3" ry="18"/>
<text xml:space="preserve" text-anchor="middle" x="408.35" y="-444.95" font-family="Times New Roman,serif" font-size="14.00">Sick</text>
</g>
<!-- Sick&#45;&gt;CardiacMixing -->
<g id="edge24" class="edge">
<title>Sick&#45;&gt;CardiacMixing</title>
<path fill="none" stroke="black" d="M435.75,-447.06C538.94,-439.03 898.35,-404.09 898.35,-307 898.35,-307 898.35,-307 898.35,-161 898.35,-120.55 909.2,-99.29 879.35,-72 853.29,-48.17 637.03,-31.12 518.83,-23.48"/>
<polygon fill="black" stroke="black" points="519.06,-19.99 508.86,-22.85 518.62,-26.98 519.06,-19.99"/>
</g>
<!-- Sick&#45;&gt;DuctFlow -->
<g id="edge25" class="edge">
<title>Sick&#45;&gt;DuctFlow</title>
<path fill="none" stroke="black" d="M402.66,-432.15C394.55,-408.16 379.56,-363.84 369.78,-334.9"/>
<polygon fill="black" stroke="black" points="373.19,-334.06 366.67,-325.7 366.56,-336.3 373.19,-334.06"/>
</g>
<!-- Sick&#45;&gt;Age -->
<g id="edge26" class="edge">
<title>Sick&#45;&gt;Age</title>
<path fill="none" stroke="black" d="M384.92,-440.13C352.67,-427.93 294.4,-405.88 257.35,-391.87"/>
<polygon fill="black" stroke="black" points="258.6,-388.6 248.01,-388.33 256.12,-395.14 258.6,-388.6"/>
</g>
<!-- Sick&#45;&gt;LungFlow -->
<g id="edge27" class="edge">
<title>Sick&#45;&gt;LungFlow</title>
<path fill="none" stroke="black" d="M391.64,-435.31C367.33,-414.26 322.96,-371.4 303.35,-324 274.78,-254.92 276.96,-164.68 280.44,-119.45"/>
<polygon fill="black" stroke="black" points="283.91,-119.97 281.28,-109.71 276.93,-119.37 283.91,-119.97"/>
</g>
<!-- Sick&#45;&gt;LungParench -->
<g id="edge28" class="edge">
<title>Sick&#45;&gt;LungParench</title>
<path fill="none" stroke="black" d="M411.56,-431.85C418.42,-395.14 434.58,-308.66 443.02,-263.53"/>
<polygon fill="black" stroke="black" points="446.46,-264.19 444.85,-253.72 439.58,-262.91 446.46,-264.19"/>
</g>
<!-- Sick&#45;&gt;Grunting -->
<g id="edge29" class="edge">
<title>Sick&#45;&gt;Grunting</title>
<path fill="none" stroke="black" d="M435.39,-446.16C494.27,-439.58 631.92,-421.8 670.35,-396 740.72,-348.76 765.07,-242.6 772.92,-191.52"/>
<polygon fill="black" stroke="black" points="776.35,-192.24 774.29,-181.85 769.42,-191.26 776.35,-192.24"/>
</g>
<!-- RUQO2 -->
<g id="node17" class="node">
<title>RUQO2</title>
<ellipse fill="none" stroke="black" cx="614.35" cy="-162" rx="41.63" ry="18"/>
<text xml:space="preserve" text-anchor="middle" x="614.35" y="-156.95" font-family="Times New Roman,serif" font-size="14.00">RUQO2</text>
</g>
<!-- HypoxiaInO2 -->
<g id="node18" class="node">
<title>HypoxiaInO2</title>
<ellipse fill="none" stroke="black" cx="614.35" cy="-90" rx="61.59" ry="18"/>
<text xml:space="preserve" text-anchor="middle" x="614.35" y="-84.95" font-family="Times New Roman,serif" font-size="14.00">HypoxiaInO2</text>
</g>
<!-- RUQO2&#45;&gt;HypoxiaInO2 -->
<g id="edge30" class="edge">
<title>RUQO2&#45;&gt;HypoxiaInO2</title>
<path fill="none" stroke="black" d="M614.35,-143.7C614.35,-136.41 614.35,-127.73 614.35,-119.54"/>
<polygon fill="black" stroke="black" points="617.85,-119.61 614.35,-109.61 610.85,-119.61 617.85,-119.61"/>
</g>
<!-- HypoxiaInO2&#45;&gt;CardiacMixing -->
<g id="edge31" class="edge">
<title>HypoxiaInO2&#45;&gt;CardiacMixing</title>
<path fill="none" stroke="black" d="M579.54,-74.83C553.43,-64.21 517.42,-49.55 488.84,-37.92"/>
<polygon fill="black" stroke="black" points="490.27,-34.73 479.69,-34.2 487.63,-41.21 490.27,-34.73"/>
</g>
<!-- Disease -->
<g id="node19" class="node">
<title>Disease</title>
<ellipse fill="none" stroke="black" cx="991.35" cy="-450" rx="39.58" ry="18"/>
<text xml:space="preserve" text-anchor="middle" x="991.35" y="-444.95" font-family="Times New Roman,serif" font-size="14.00">Disease</text>
</g>
<!-- BirthAsphyxia -->
<g id="node20" class="node">
<title>BirthAsphyxia</title>
<ellipse fill="none" stroke="black" cx="991.35" cy="-378" rx="65.17" ry="18"/>
<text xml:space="preserve" text-anchor="middle" x="991.35" y="-372.95" font-family="Times New Roman,serif" font-size="14.00">BirthAsphyxia</text>
</g>
<!-- Disease&#45;&gt;BirthAsphyxia -->
<g id="edge32" class="edge">
<title>Disease&#45;&gt;BirthAsphyxia</title>
<path fill="none" stroke="black" d="M991.35,-431.7C991.35,-424.41 991.35,-415.73 991.35,-407.54"/>
<polygon fill="black" stroke="black" points="994.85,-407.61 991.35,-397.61 987.85,-407.61 994.85,-407.61"/>
</g>
</g>
</svg>
