<?xml version="1.0" encoding="UTF-8" standalone="no"?>
<!DOCTYPE svg PUBLIC "-//W3C//DTD SVG 1.1//EN"
 "http://www.w3.org/Graphics/SVG/1.1/DTD/svg11.dtd">
<!-- Generated by graphviz version 14.1.3 (0)
 -->
<!-- Pages: 1 -->
<svg width="230pt" height="157pt"
 viewBox="0.00 0.00 230.00 157.00" xmlns="http://www.w3.org/2000/svg" xmlns:xlink="http://www.w3.org/1999/xlink">
<g id="graph0" class="graph" transform="scale(1 1) rotate(0) translate(4 152.6)">
<polygon fill="white" stroke="none" points="-4,4 -4,-152.6 226,-152.6 226,4 -4,4"/>
<!-- Xray -->
<g id="node1" class="node">
<title>Xray</title>
<ellipse fill="none" stroke="black" cx="49.91" cy="-18" rx="34.37" ry="18"/>
<text xml:space="preserve" text-anchor="middle" x="49.91" y="-13.32" font-family="Times,serif" font-size="14.00">Xray</text>
</g>
<!-- Cancer -->
<g id="node2" class="node">
<title>Cancer</title>
<ellipse fill="none" stroke="black" cx="105.86" cy="-74.46" rx="46.47" ry="18"/>
<text xml:space="preserve" text-anchor="middle" x="105.86" y="-69.78" font-family="Times,serif" font-size="14.00">Cancer</text>
</g>
<!-- Cancer&#45;&gt;Xray -->
<g id="edge1" class="edge">
<title>Cancer&#45;&gt;Xray</title>
<path fill="none" stroke="black" d="M89.07,-57.52C84.26,-52.66 78.91,-47.26 73.76,-42.06"/>
<polygon fill="black" stroke="black" points="76.51,-39.87 66.99,-35.23 71.54,-44.79 76.51,-39.87"/>
</g>
<!-- Dyspnoea -->
<g id="node5" class="node">
<title>Dyspnoea</title>
<ellipse fill="none" stroke="black" cx="161.85" cy="-18.05" rx="60.15" ry="18"/>
<text xml:space="preserve" text-anchor="middle" x="161.85" y="-13.37" font-family="Times,serif" font-size="14.00">Dyspnoea</text>
</g>
<!-- Cancer&#45;&gt;Dyspnoea -->
<g id="edge2" class="edge">
<title>Cancer&#45;&gt;Dyspnoea</title>
<path fill="none" stroke="black" d="M122.66,-57.53C126.92,-53.23 131.61,-48.51 136.21,-43.88"/>
<polygon fill="black" stroke="black" points="138.66,-46.38 143.22,-36.82 133.69,-41.45 138.66,-46.38"/>
</g>
<!-- Smoker -->
<g id="node3" class="node">
<title>Smoker</title>
<ellipse fill="none" stroke="black" cx="49.63" cy="-130.6" rx="49.63" ry="18"/>
<text xml:space="preserve" text-anchor="middle" x="49.63" y="-125.92" font-family="Times,serif" font-size="14.00">Smoker</text>
</g>
<!-- Smoker&#45;&gt;Cancer -->
<g id="edge3" class="edge">
<title>Smoker&#45;&gt;Cancer</title>
<path fill="none" stroke="black" d="M66.81,-113.45C71.27,-108.99 76.18,-104.09 80.96,-99.32"/>
<polygon fill="black" stroke="black" points="83.11,-102.11 87.72,-92.57 78.17,-97.16 83.11,-102.11"/>
</g>
<!-- Pollution -->
<g id="node4" class="node">
<title>Pollution</title>
<ellipse fill="none" stroke="black" cx="162.11" cy="-130.57" rx="55.42" ry="18"/>
<text xml:space="preserve" text-anchor="middle" x="162.11" y="-125.89" font-family="Times,serif" font-size="14.00">Pollution</text>
</g>
<!-- Pollution&#45;&gt;Cancer -->
<g id="edge4" class="edge">
<title>Pollution&#45;&gt;Cancer</title>
<path fill="none" stroke="black" d="M144.62,-113.12C140.27,-108.78 135.52,-104.04 130.88,-99.41"/>
<polygon fill="black" stroke="black" points="133.38,-96.97 123.83,-92.38 128.44,-101.92 133.38,-96.97"/>
</g>
</g>
</svg>
