<?xml version="1.0" encoding="UTF-8" standalone="no"?>
<!DOCTYPE svg PUBLIC "-//W3C//DTD SVG 1.1//EN"
 "http://www.w3.org/Graphics/SVG/1.1/DTD/svg11.dtd">
<!-- Generated by graphviz version 14.1.3 (0)
 -->
<!-- Title: unknown Pages: 1 -->
<svg width="526pt" height="425pt"
 viewBox="0.00 0.00 526.00 425.00" xmlns="http://www.w3.org/2000/svg" xmlns:xlink="http://www.w3.org/1999/xlink">
<g id="graph0" class="graph" transform="scale(1 1) rotate(0) translate(4 421.12)">
<title>unknown</title>
<polygon fill="white" stroke="none" points="-4,4 -4,-421.12 521.97,-421.12 521.97,4 -4,4"/>
<!-- BirthAsphyxia -->
<g id="node1" class="node">
<title>BirthAsphyxia</title>
<ellipse fill="none" stroke="black" cx="260.13" cy="-340.17" rx="82.25" ry="18"/>
<text xml:space="preserve" text-anchor="middle" x="260.13" y="-335.5" font-family="Times,serif" font-size="14.00">BirthAsphyxia</text>
</g>
<!-- Disease -->
<g id="node12" class="node">
<title>Disease</title>
<ellipse fill="none" stroke="black" cx="258.12" cy="-259.67" rx="50.16" ry="18"/>
<text xml:space="preserve" text-anchor="middle" x="258.12" y="-255" font-family="Times,serif" font-size="14.00">Disease</text>
</g>
<!-- BirthAsphyxia&#45;&gt;Disease -->
<g id="edge1" class="edge">
<title>BirthAsphyxia&#45;&gt;Disease</title>
<path fill="none" stroke="black" d="M259.67,-321.91C259.43,-312.3 259.13,-300.28 258.86,-289.38"/>
<polygon fill="black" stroke="black" points="262.37,-289.57 258.62,-279.66 255.37,-289.74 262.37,-289.57"/>
</g>
<!-- HypDistrib -->
<g id="node2" class="node">
<title>HypDistrib</title>
<ellipse fill="none" stroke="black" cx="132.91" cy="-157.93" rx="66.47" ry="18"/>
<text xml:space="preserve" text-anchor="middle" x="132.91" y="-153.25" font-family="Times,serif" font-size="14.00">HypDistrib</text>
</g>
<!-- LowerBodyO2 -->
<g id="node8" class="node">
<title>LowerBodyO2</title>
<ellipse fill="none" stroke="black" cx="152.57" cy="-77.48" rx="81.72" ry="18"/>
<text xml:space="preserve" text-anchor="middle" x="152.57" y="-72.8" font-family="Times,serif" font-size="14.00">LowerBodyO2</text>
</g>
<!-- HypDistrib&#45;&gt;LowerBodyO2 -->
<g id="edge2" class="edge">
<title>HypDistrib&#45;&gt;LowerBodyO2</title>
<path fill="none" stroke="black" d="M137.37,-139.67C139.74,-129.97 142.72,-117.81 145.4,-106.81"/>
<polygon fill="black" stroke="black" points="148.73,-107.95 147.7,-97.41 141.93,-106.29 148.73,-107.95"/>
</g>
<!-- HypoxiaInO2 -->
<g id="node3" class="node">
<title>HypoxiaInO2</title>
<ellipse fill="none" stroke="black" cx="234.93" cy="-100.22" rx="76.46" ry="18"/>
<text xml:space="preserve" text-anchor="middle" x="234.93" y="-95.55" font-family="Times,serif" font-size="14.00">HypoxiaInO2</text>
</g>
<!-- HypoxiaInO2&#45;&gt;LowerBodyO2 -->
<g id="edge3" class="edge">
<title>HypoxiaInO2&#45;&gt;LowerBodyO2</title>
<path fill="none" stroke="black" d="M184.65,-86.34C184.59,-86.32 184.52,-86.3 184.45,-86.28"/>
<polygon fill="black" stroke="black" points="196.28,-85.92 185.71,-86.63 194.42,-92.67 196.28,-85.92"/>
</g>
<!-- RUQO2 -->
<g id="node9" class="node">
<title>RUQO2</title>
<ellipse fill="none" stroke="black" cx="237.37" cy="-18" rx="49.1" ry="18"/>
<text xml:space="preserve" text-anchor="middle" x="237.37" y="-13.32" font-family="Times,serif" font-size="14.00">RUQO2</text>
</g>
<!-- HypoxiaInO2&#45;&gt;RUQO2 -->
<g id="edge4" class="edge">
<title>HypoxiaInO2&#45;&gt;RUQO2</title>
<path fill="none" stroke="black" d="M235.47,-81.98C235.77,-71.93 236.15,-59.22 236.49,-47.78"/>
<polygon fill="black" stroke="black" points="239.98,-48.09 236.77,-37.99 232.98,-47.89 239.98,-48.09"/>
</g>
<!-- CO2 -->
<g id="node4" class="node">
<title>CO2</title>
<ellipse fill="none" stroke="black" cx="335.73" cy="-107.97" rx="32.79" ry="18"/>
<text xml:space="preserve" text-anchor="middle" x="335.73" y="-103.3" font-family="Times,serif" font-size="14.00">CO2</text>
</g>
<!-- CO2Report -->
<g id="node10" class="node">
<title>CO2Report</title>
<ellipse fill="none" stroke="black" cx="389.04" cy="-46.03" rx="66.99" ry="18"/>
<text xml:space="preserve" text-anchor="middle" x="389.04" y="-41.36" font-family="Times,serif" font-size="14.00">CO2Report</text>
</g>
<!-- CO2&#45;&gt;CO2Report -->
<g id="edge5" class="edge">
<title>CO2&#45;&gt;CO2Report</title>
<path fill="none" stroke="black" d="M350.02,-91.37C355.02,-85.56 360.77,-78.88 366.3,-72.46"/>
<polygon fill="black" stroke="black" points="368.74,-74.99 372.6,-65.13 363.43,-70.42 368.74,-74.99"/>
</g>
<!-- ChestXray -->
<g id="node5" class="node">
<title>ChestXray</title>
<ellipse fill="none" stroke="black" cx="366.83" cy="-189.15" rx="63.31" ry="18"/>
<text xml:space="preserve" text-anchor="middle" x="366.83" y="-184.48" font-family="Times,serif" font-size="14.00">ChestXray</text>
</g>
<!-- XrayReport -->
<g id="node11" class="node">
<title>XrayReport</title>
<ellipse fill="none" stroke="black" cx="449.4" cy="-184.57" rx="68.57" ry="18"/>
<text xml:space="preserve" text-anchor="middle" x="449.4" y="-179.9" font-family="Times,serif" font-size="14.00">XrayReport</text>
</g>
<!-- ChestXray&#45;&gt;XrayReport -->
<g id="edge6" class="edge">
<title>ChestXray&#45;&gt;XrayReport</title>
<path fill="none" stroke="black" d="M429.41,-185.68C429.46,-185.68 429.5,-185.68 429.54,-185.67"/>
<polygon fill="black" stroke="black" points="418.38,-189.81 428.17,-185.75 417.99,-182.82 418.38,-189.81"/>
</g>
<!-- Grunting -->
<g id="node6" class="node">
<title>Grunting</title>
<ellipse fill="none" stroke="black" cx="188.59" cy="-199.68" rx="56.47" ry="18"/>
<text xml:space="preserve" text-anchor="middle" x="188.59" y="-195.01" font-family="Times,serif" font-size="14.00">Grunting</text>
</g>
<!-- GruntingReport -->
<g id="node13" class="node">
<title>GruntingReport</title>
<ellipse fill="none" stroke="black" cx="90.67" cy="-200.15" rx="90.67" ry="18"/>
<text xml:space="preserve" text-anchor="middle" x="90.67" y="-195.48" font-family="Times,serif" font-size="14.00">GruntingReport</text>
</g>
<!-- Grunting&#45;&gt;GruntingReport -->
<g id="edge7" class="edge">
<title>Grunting&#45;&gt;GruntingReport</title>
<path fill="none" stroke="black" d="M131.63,-199.96C131.59,-199.96 131.54,-199.96 131.5,-199.96"/>
<polygon fill="black" stroke="black" points="142.87,-196.39 132.89,-199.95 142.91,-203.39 142.87,-196.39"/>
</g>
<!-- LVHreport -->
<g id="node7" class="node">
<title>LVHreport</title>
<ellipse fill="none" stroke="black" cx="356.02" cy="-399.12" rx="63.31" ry="18"/>
<text xml:space="preserve" text-anchor="middle" x="356.02" y="-394.44" font-family="Times,serif" font-size="14.00">LVHreport</text>
</g>
<!-- Age -->
<g id="node14" class="node">
<title>Age</title>
<ellipse fill="none" stroke="black" cx="205.76" cy="-332.64" rx="30.16" ry="18"/>
<text xml:space="preserve" text-anchor="middle" x="205.76" y="-327.96" font-family="Times,serif" font-size="14.00">Age</text>
</g>
<!-- Disease&#45;&gt;Age -->
<g id="edge8" class="edge">
<title>Disease&#45;&gt;Age</title>
<path fill="none" stroke="black" d="M245.45,-277.34C239.09,-286.19 231.27,-297.09 224.26,-306.86"/>
<polygon fill="black" stroke="black" points="221.47,-304.74 218.48,-314.91 227.16,-308.83 221.47,-304.74"/>
</g>
<!-- LVH -->
<g id="node15" class="node">
<title>LVH</title>
<ellipse fill="none" stroke="black" cx="316.51" cy="-327.81" rx="31.74" ry="18"/>
<text xml:space="preserve" text-anchor="middle" x="316.51" y="-323.13" font-family="Times,serif" font-size="14.00">LVH</text>
</g>
<!-- Disease&#45;&gt;LVH -->
<g id="edge9" class="edge">
<title>Disease&#45;&gt;LVH</title>
<path fill="none" stroke="black" d="M273.16,-277.22C279.88,-285.06 287.92,-294.45 295.24,-302.99"/>
<polygon fill="black" stroke="black" points="292.38,-305.03 301.54,-310.34 297.69,-300.47 292.38,-305.03"/>
</g>
<!-- DuctFlow -->
<g id="node16" class="node">
<title>DuctFlow</title>
<ellipse fill="none" stroke="black" cx="165.66" cy="-242.14" rx="59.1" ry="18"/>
<text xml:space="preserve" text-anchor="middle" x="165.66" y="-237.46" font-family="Times,serif" font-size="14.00">DuctFlow</text>
</g>
<!-- Disease&#45;&gt;DuctFlow -->
<g id="edge10" class="edge">
<title>Disease&#45;&gt;DuctFlow</title>
<path fill="none" stroke="black" d="M213.25,-251.16C213.2,-251.15 213.15,-251.14 213.11,-251.14"/>
<polygon fill="black" stroke="black" points="224.94,-249.82 214.46,-251.39 223.63,-256.7 224.94,-249.82"/>
</g>
<!-- CardiacMixing -->
<g id="node17" class="node">
<title>CardiacMixing</title>
<ellipse fill="none" stroke="black" cx="219.59" cy="-178.64" rx="84.35" ry="18"/>
<text xml:space="preserve" text-anchor="middle" x="219.59" y="-173.97" font-family="Times,serif" font-size="14.00">CardiacMixing</text>
</g>
<!-- Disease&#45;&gt;CardiacMixing -->
<g id="edge11" class="edge">
<title>Disease&#45;&gt;CardiacMixing</title>
<path fill="none" stroke="black" d="M249.57,-241.69C244.72,-231.48 238.53,-218.47 233.04,-206.92"/>
<polygon fill="black" stroke="black" points="236.36,-205.75 228.9,-198.22 230.04,-208.76 236.36,-205.75"/>
</g>
<!-- LungParench -->
<g id="node18" class="node">
<title>LungParench</title>
<ellipse fill="none" stroke="black" cx="281.75" cy="-174.24" rx="76.99" ry="18"/>
<text xml:space="preserve" text-anchor="middle" x="281.75" y="-169.57" font-family="Times,serif" font-size="14.00">LungParench</text>
</g>
<!-- Disease&#45;&gt;LungParench -->
<g id="edge12" class="edge">
<title>Disease&#45;&gt;LungParench</title>
<path fill="none" stroke="black" d="M263.13,-241.56C266.18,-230.53 270.15,-216.19 273.63,-203.58"/>
<polygon fill="black" stroke="black" points="276.97,-204.66 276.26,-194.09 270.22,-202.79 276.97,-204.66"/>
</g>
<!-- LungFlow -->
<g id="node19" class="node">
<title>LungFlow</title>
<ellipse fill="none" stroke="black" cx="340.21" cy="-257.31" rx="60.68" ry="18"/>
<text xml:space="preserve" text-anchor="middle" x="340.21" y="-252.64" font-family="Times,serif" font-size="14.00">LungFlow</text>
</g>
<!-- Disease&#45;&gt;LungFlow -->
<g id="edge13" class="edge">
<title>Disease&#45;&gt;LungFlow</title>
<path fill="none" stroke="black" d="M308.24,-258.23C308.3,-258.23 308.37,-258.23 308.44,-258.23"/>
<polygon fill="black" stroke="black" points="297.23,-262.06 307.13,-258.27 297.03,-255.06 297.23,-262.06"/>
</g>
<!-- Sick -->
<g id="node20" class="node">
<title>Sick</title>
<ellipse fill="none" stroke="black" cx="188.83" cy="-285.25" rx="32.27" ry="18"/>
<text xml:space="preserve" text-anchor="middle" x="188.83" y="-280.57" font-family="Times,serif" font-size="14.00">Sick</text>
</g>
<!-- Disease&#45;&gt;Sick -->
<g id="edge14" class="edge">
<title>Disease&#45;&gt;Sick</title>
<path fill="none" stroke="black" d="M222.66,-272.76C222.52,-272.81 222.38,-272.86 222.24,-272.92"/>
<polygon fill="black" stroke="black" points="225.51,-267.98 217.34,-274.72 227.93,-274.54 225.51,-267.98"/>
</g>
<!-- LVH&#45;&gt;LVHreport -->
<g id="edge15" class="edge">
<title>LVH&#45;&gt;LVHreport</title>
<path fill="none" stroke="black" d="M326.28,-345.44C330.61,-353.26 335.82,-362.66 340.66,-371.39"/>
<polygon fill="black" stroke="black" points="337.45,-372.82 345.36,-379.88 343.57,-369.43 337.45,-372.82"/>
</g>
<!-- DuctFlow&#45;&gt;HypDistrib -->
<g id="edge16" class="edge">
<title>DuctFlow&#45;&gt;HypDistrib</title>
<path fill="none" stroke="black" d="M158.56,-223.87C154.35,-213.05 148.93,-199.11 144.15,-186.83"/>
<polygon fill="black" stroke="black" points="147.44,-185.63 140.55,-177.58 140.91,-188.16 147.44,-185.63"/>
</g>
<!-- CardiacMixing&#45;&gt;HypDistrib -->
<g id="edge17" class="edge">
<title>CardiacMixing&#45;&gt;HypDistrib</title>
<path fill="none" stroke="black" d="M162.74,-165.06C162.68,-165.04 162.61,-165.03 162.55,-165.01"/>
<polygon fill="black" stroke="black" points="174.37,-164.24 163.83,-165.32 172.74,-171.05 174.37,-164.24"/>
</g>
<!-- CardiacMixing&#45;&gt;HypoxiaInO2 -->
<g id="edge18" class="edge">
<title>CardiacMixing&#45;&gt;HypoxiaInO2</title>
<path fill="none" stroke="black" d="M223.15,-160.45C224.94,-151.31 227.15,-140.01 229.17,-129.68"/>
<polygon fill="black" stroke="black" points="232.57,-130.56 231.05,-120.07 225.7,-129.21 232.57,-130.56"/>
</g>
<!-- LungParench&#45;&gt;HypoxiaInO2 -->
<g id="edge19" class="edge">
<title>LungParench&#45;&gt;HypoxiaInO2</title>
<path fill="none" stroke="black" d="M270.42,-156.33C265.03,-147.82 258.48,-137.45 252.47,-127.96"/>
<polygon fill="black" stroke="black" points="255.6,-126.35 247.3,-119.77 249.68,-130.09 255.6,-126.35"/>
</g>
<!-- LungParench&#45;&gt;CO2 -->
<g id="edge20" class="edge">
<title>LungParench&#45;&gt;CO2</title>
<path fill="none" stroke="black" d="M296.5,-156.13C302.24,-149.08 308.93,-140.88 315.13,-133.26"/>
<polygon fill="black" stroke="black" points="317.55,-135.83 321.16,-125.87 312.13,-131.41 317.55,-135.83"/>
</g>
<!-- LungParench&#45;&gt;ChestXray -->
<g id="edge21" class="edge">
<title>LungParench&#45;&gt;ChestXray</title>
<path fill="none" stroke="black" d="M344.03,-185.16C344.08,-185.16 344.13,-185.17 344.18,-185.18"/>
<polygon fill="black" stroke="black" points="332.39,-186.66 342.84,-184.95 333.6,-179.77 332.39,-186.66"/>
</g>
<!-- LungParench&#45;&gt;Grunting -->
<g id="edge22" class="edge">
<title>LungParench&#45;&gt;Grunting</title>
<path fill="none" stroke="black" d="M230.81,-188.15C230.77,-188.17 230.72,-188.18 230.68,-188.19"/>
<polygon fill="black" stroke="black" points="240.74,-181.81 232.01,-187.82 242.58,-188.56 240.74,-181.81"/>
</g>
<!-- LungFlow&#45;&gt;ChestXray -->
<g id="edge23" class="edge">
<title>LungFlow&#45;&gt;ChestXray</title>
<path fill="none" stroke="black" d="M347.34,-239.05C349.85,-232.63 352.73,-225.25 355.5,-218.17"/>
<polygon fill="black" stroke="black" points="358.75,-219.47 359.13,-208.88 352.23,-216.92 358.75,-219.47"/>
</g>
<!-- Sick&#45;&gt;Grunting -->
<g id="edge24" class="edge">
<title>Sick&#45;&gt;Grunting</title>
<path fill="none" stroke="black" d="M188.78,-267.1C188.75,-256.17 188.71,-241.99 188.67,-229.45"/>
<polygon fill="black" stroke="black" points="192.17,-229.6 188.64,-219.61 185.17,-229.62 192.17,-229.6"/>
</g>
<!-- Sick&#45;&gt;Age -->
<g id="edge25" class="edge">
<title>Sick&#45;&gt;Age</title>
<path fill="none" stroke="black" d="M195.23,-303.16C195.31,-303.4 195.4,-303.64 195.48,-303.87"/>
<polygon fill="black" stroke="black" points="192.18,-305.03 198.84,-313.27 198.77,-302.68 192.18,-305.03"/>
</g>
</g>
</svg>
