<?xml version="1.0" encoding="UTF-8" standalone="no"?>
<!DOCTYPE svg PUBLIC "-//W3C//DTD SVG 1.1//EN"
 "http://www.w3.org/Graphics/SVG/1.1/DTD/svg11.dtd">
<!-- Generated by graphviz version 14.1.3 (20260303.0454)
 -->
<!-- Pages: 1 -->
<svg width="534pt" height="116pt"
 viewBox="0.00 0.00 534.00 116.00" xmlns="http://www.w3.org/2000/svg" xmlns:xlink="http://www.w3.org/1999/xlink">
<g id="graph0" class="graph" transform="scale(1 1) rotate(0) translate(4 112)">
<polygon fill="white" stroke="none" points="-4,4 -4,-112 530.32,-112 530.32,4 -4,4"/>
<!-- tub -->
<g id="node1" class="node">
<title>tub</title>
<ellipse fill="none" stroke="black" cx="27" cy="-90" rx="27" ry="18"/>
<text xml:space="preserve" text-anchor="middle" x="27" y="-84.95" font-family="Times New Roman,serif" font-size="14.00">tub</text>
</g>
<!-- asia -->
<g id="node2" class="node">
<title>asia</title>
<ellipse fill="none" stroke="black" cx="27" cy="-18" rx="27" ry="18"/>
<text xml:space="preserve" text-anchor="middle" x="27" y="-12.95" font-family="Times New Roman,serif" font-size="14.00">asia</text>
</g>
<!-- tub&#45;&gt;asia -->
<g id="edge1" class="edge">
<title>tub&#45;&gt;asia</title>
<path fill="none" stroke="black" d="M27,-71.7C27,-64.41 27,-55.73 27,-47.54"/>
<polygon fill="black" stroke="black" points="30.5,-47.62 27,-37.62 23.5,-47.62 30.5,-47.62"/>
</g>
<!-- bronc -->
<g id="node3" class="node">
<title>bronc</title>
<ellipse fill="none" stroke="black" cx="104" cy="-90" rx="31.9" ry="18"/>
<text xml:space="preserve" text-anchor="middle" x="104" y="-84.95" font-family="Times New Roman,serif" font-size="14.00">bronc</text>
</g>
<!-- xray -->
<g id="node4" class="node">
<title>xray</title>
<ellipse fill="none" stroke="black" cx="181" cy="-90" rx="27.3" ry="18"/>
<text xml:space="preserve" text-anchor="middle" x="181" y="-84.95" font-family="Times New Roman,serif" font-size="14.00">xray</text>
</g>
<!-- either -->
<g id="node5" class="node">
<title>either</title>
<ellipse fill="none" stroke="black" cx="258" cy="-90" rx="31.9" ry="18"/>
<text xml:space="preserve" text-anchor="middle" x="258" y="-84.95" font-family="Times New Roman,serif" font-size="14.00">either</text>
</g>
<!-- smoke -->
<g id="node6" class="node">
<title>smoke</title>
<ellipse fill="none" stroke="black" cx="343" cy="-90" rx="35.49" ry="18"/>
<text xml:space="preserve" text-anchor="middle" x="343" y="-84.95" font-family="Times New Roman,serif" font-size="14.00">smoke</text>
</g>
<!-- lung -->
<g id="node7" class="node">
<title>lung</title>
<ellipse fill="none" stroke="black" cx="424" cy="-90" rx="27.3" ry="18"/>
<text xml:space="preserve" text-anchor="middle" x="424" y="-84.95" font-family="Times New Roman,serif" font-size="14.00">lung</text>
</g>
<!-- dysp -->
<g id="node8" class="node">
<title>dysp</title>
<ellipse fill="none" stroke="black" cx="498" cy="-90" rx="28.32" ry="18"/>
<text xml:space="preserve" text-anchor="middle" x="498" y="-84.95" font-family="Times New Roman,serif" font-size="14.00">dysp</text>
</g>
</g>
</svg>
